{
  "accessors": [
    {
      "bufferView": 2,
      "componentType": 5126,
      "count": 84,
      "max": [
        0.22777600586414337,
        -0.05544000118970871,
        1.8696130514144897
      ],
      "min": [
        -0.25217700004577637,
        -0.2838369905948639,
        1.5946789979934692
      ],
      "type": "VEC3"
    },
    {
      "bufferView": 2,
      "byteOffset": 1008,
      "componentType": 5126,
      "count": 84,
      "max": [
        0.9804056286811829,
        0.00343999988399446,
        0.9823468923568726
      ],
      "min": [
        -0.922069251537323,
        -0.9911813735961914,
        -0.9350313544273376
      ],
      "type": "VEC3"
    },
    {
      "bufferView": 1,
      "componentType": 5126,
      "count": 84,
      "max": [
        0.9919400215148926,
        0.9917600154876709
      ],
      "min": [
        0.014209999702870846,
        0.011210000142455101
      ],
      "type": "VEC2"
    },
    {
      "bufferView": 0,
      "componentType": 5125,
      "count": 285,
      "type": "SCALAR"
    },
    {
      "bufferView": 2,
      "byteOffset": 2016,
      "componentType": 5126,
      "count": 2526,
      "max": [
        0.5918819904327393,
        0.32126501202583313,
        1.9228609800338745
      ],
      "min": [
        -0.5918819904327393,
        -0.2985840141773224,
        -0.0012229999992996454
      ],
      "type": "VEC3"
    },
    {
      "bufferView": 2,
      "byteOffset": 32328,
      "componentType": 5126,
      "count": 2526,
      "max": [
        0.9993163347244263,
        0.9999497532844543,
        0.9994248747825623
      ],
      "min": [
        -0.9994094967842102,
        -0.9997121095657349,
        -0.9998093843460083
      ],
      "type": "VEC3"
    },
    {
      "bufferView": 1,
      "byteOffset": 672,
      "componentType": 5126,
      "count": 2526,
      "max": [
        0.9985600113868713,
        0.9944199919700623
      ],
      "min": [
        0.002589999930933118,
        0.005319999996572733
      ],
      "type": "VEC2"
    },
    {
      "bufferView": 0,
      "byteOffset": 1140,
      "componentType": 5125,
      "count": 10464,
      "type": "SCALAR"
    }
  ],
  "asset": {
    "extras": {
      "author": "fred rich cool (https://sketchfab.com/myodakush420)",
      "license": "CC-BY-4.0 (http://creativecommons.org/licenses/by/4.0/)",
      "source": "https://sketchfab.com/3d-models/mobile-frozen-free-fall-young-elsa-06ae0d65690043d6a8310f0f5a2f5613",
      "title": "Mobile - Frozen Free Fall - Young Elsa"
    },
    "generator": "Sketchfab-16.59.0",
    "version": "2.0"
  },
  "bufferViews": [
    {
      "buffer": 0,
      "byteLength": 42996,
      "name": "floatBufferViews",
      "target": 34963
    },
    {
      "buffer": 0,
      "byteLength": 20880,
      "byteOffset": 42996,
      "byteStride": 8,
      "name": "floatBufferViews",
      "target": 34962
    },
    {
      "buffer": 0,
      "byteLength": 62640,
      "byteOffset": 63876,
      "byteStride": 12,
      "name": "floatBufferViews",
      "target": 34962
    }
  ],
  "buffers": [
    {
      "byteLength": 126516,
      "uri": "scene.bin"
    }
  ],
  "images": [
    {
      "uri": "textures/Child_Anna_baseColor.png"
    },
    {
      "uri": "textures/Child_Anna_Hair_baseColor.png"
    }
  ],
  "materials": [
    {
      "doubleSided": true,
      "name": "Child_Anna",
      "pbrMetallicRoughness": {
        "baseColorTexture": {
          "index": 0
        },
        "metallicFactor": 0.0
      }
    },
    {
      "doubleSided": true,
      "name": "Child_Anna_Hair",
      "pbrMetallicRoughness": {
        "baseColorTexture": {
          "index": 1
        },
        "metallicFactor": 0.0
      }
    }
  ],
  "meshes": [
    {
      "name": "Object_0",
      "primitives": [
        {
          "attributes": {
            "NORMAL": 1,
            "POSITION": 0,
            "TEXCOORD_0": 2
          },
          "indices": 3,
          "material": 1,
          "mode": 4
        }
      ]
    },
    {
      "name": "Object_1",
      "primitives": [
        {
          "attributes": {
            "NORMAL": 5,
            "POSITION": 4,
            "TEXCOORD_0": 6
          },
          "indices": 7,
          "material": 0,
          "mode": 4
        }
      ]
    }
  ],
  "nodes": [
    {
      "children": [
        1
      ],
      "matrix": [
        1.0,
        0.0,
        0.0,
        0.0,
        0.0,
        2.220446049250313e-16,
        -1.0,
        0.0,
        0.0,
        1.0,
        2.220446049250313e-16,
        0.0,
        0.0,
        0.0,
        0.0,
        1.0
      ],
      "name": "Sketchfab_model"
    },
    {
      "children": [
        2,
        3
      ],
      "name": "YoungAnna.obj.cleaner.materialmerger.gles"
    },
    {
      "mesh": 0,
      "name": "Object_2"
    },
    {
      "mesh": 1,
      "name": "Object_3"
    }
  ],
  "samplers": [
    {
      "magFilter": 9729,
      "minFilter": 9987,
      "wrapS": 10497,
      "wrapT": 10497
    }
  ],
  "scene": 0,
  "scenes": [
    {
      "name": "Sketchfab_Scene",
      "nodes": [
        0
      ]
    }
  ],
  "textures": [
    {
      "sampler": 0,
      "source": 0
    },
    {
      "sampler": 0,
      "source": 1
    }
  ]
}
