<svg xmlns="http://www.w3.org/2000/svg" width="1600" height="1000" viewBox="0 0 1600 1000">
<rect x="0" y="0" width="100%" height="100%" fill="#ffffff"/>
<path d="M 730.0,720.0 L 450.0,720.0 L 450.0,210.0 L 170.0,210.0" fill="none" stroke="#666666" stroke-width="2"/>
<polygon points="170.0,210.0 180.0,215.0 180.0,205.0" fill="#666666"/>
<path d="M 730.0,720.0 L 455.0,720.0 L 455.0,420.0 L 180.0,420.0" fill="none" stroke="#666666" stroke-width="2"/>
<polygon points="180.0,420.0 190.0,425.0 190.0,415.0" fill="#666666"/>
<path d="M 730.0,720.0 L 932.5,720.0 L 932.5,220.0 L 1135.0,220.0" fill="none" stroke="#666666" stroke-width="2"/>
<polygon points="1135.0,220.0 1125.0,215.0 1125.0,225.0" fill="#666666"/>
<path d="M 730.0,720.0 L 932.5,720.0 L 932.5,380.0 L 1135.0,380.0" fill="none" stroke="#666666" stroke-width="2"/>
<polygon points="1135.0,380.0 1125.0,375.0 1125.0,385.0" fill="#666666"/>
<path d="M 730.0,720.0 L 932.5,720.0 L 932.5,560.0 L 1135.0,560.0" fill="none" stroke="#666666" stroke-width="2"/>
<polygon points="1135.0,560.0 1125.0,555.0 1125.0,565.0" fill="#666666"/>
<path d="M 840.0,775.0 L 925.0,775.0 L 925.0,665.0 L 1010.0,665.0" fill="none" stroke="#666666" stroke-width="2"/>
<polygon points="1010.0,665.0 1000.0,660.0 1000.0,670.0" fill="#666666"/>
<path d="M 730.0,720.0 L 695.0,720.0 L 695.0,430.0 L 660.0,430.0" fill="none" stroke="#666666" stroke-width="2"/>
<polygon points="660.0,430.0 670.0,435.0 670.0,425.0" fill="#666666"/>
<path d="M 840.0,775.0 L 865.0,775.0 L 865.0,775.0 L 890.0,775.0" fill="none" stroke="#666666" stroke-width="2"/>
<polygon points="890.0,775.0 880.0,770.0 880.0,780.0" fill="#666666"/>
<path d="M 730.0,720.0 L 1090.0,720.0 L 1090.0,470.0 L 1450.0,470.0" fill="none" stroke="#666666" stroke-width="2"/>
<polygon points="1450.0,470.0 1440.0,465.0 1440.0,475.0" fill="#666666"/>
<path d="M 170.0,210.0 L 175.0,210.0 L 175.0,300.0 L 180.0,300.0" fill="none" stroke="#666666" stroke-width="2"/>
<polygon points="180.0,300.0 170.0,295.0 170.0,305.0" fill="#666666"/>
<path d="M 280.0,160.0 L 400.0,160.0 L 400.0,360.0 L 520.0,360.0" fill="none" stroke="#666666" stroke-width="2"/>
<polygon points="520.0,360.0 510.0,355.0 510.0,365.0" fill="#666666"/>
<path d="M 300.0,360.0 L 410.0,360.0 L 410.0,360.0 L 520.0,360.0" fill="none" stroke="#666666" stroke-width="2"/>
<polygon points="520.0,360.0 510.0,355.0 510.0,365.0" fill="#666666"/>
<path d="M 1135.0,220.0 L 967.5,220.0 L 967.5,360.0 L 800.0,360.0" fill="none" stroke="#666666" stroke-width="2"/>
<polygon points="800.0,360.0 810.0,365.0 810.0,355.0" fill="#666666"/>
<path d="M 1010.0,170.0 L 655.0,170.0 L 655.0,360.0 L 300.0,360.0" fill="none" stroke="#666666" stroke-width="2"/>
<polygon points="300.0,360.0 310.0,365.0 310.0,355.0" fill="#666666"/>
<path d="M 1135.0,220.0 L 1135.0,220.0 L 1135.0,610.0 L 1135.0,610.0" fill="none" stroke="#666666" stroke-width="2"/>
<polygon points="1135.0,610.0 1125.0,605.0 1125.0,615.0" fill="#666666"/>
<path d="M 1010.0,325.0 L 905.0,325.0 L 905.0,360.0 L 800.0,360.0" fill="none" stroke="#666666" stroke-width="2"/>
<polygon points="800.0,360.0 810.0,365.0 810.0,355.0" fill="#666666"/>
<path d="M 1010.0,325.0 L 655.0,325.0 L 655.0,360.0 L 300.0,360.0" fill="none" stroke="#666666" stroke-width="2"/>
<polygon points="300.0,360.0 310.0,365.0 310.0,355.0" fill="#666666"/>
<path d="M 1135.0,380.0 L 1135.0,380.0 L 1135.0,610.0 L 1135.0,610.0" fill="none" stroke="#666666" stroke-width="2"/>
<polygon points="1135.0,610.0 1125.0,605.0 1125.0,615.0" fill="#666666"/>
<path d="M 1135.0,560.0 L 1135.0,560.0 L 1135.0,610.0 L 1135.0,610.0" fill="none" stroke="#666666" stroke-width="2"/>
<polygon points="1135.0,610.0 1125.0,605.0 1125.0,615.0" fill="#666666"/>
<path d="M 1135.0,460.0 L 1135.0,460.0 L 1135.0,380.0 L 1135.0,380.0" fill="none" stroke="#666666" stroke-width="2"/>
<polygon points="1135.0,380.0 1125.0,375.0 1125.0,385.0" fill="#666666"/>
<path d="M 1010.0,510.0 L 905.0,510.0 L 905.0,360.0 L 800.0,360.0" fill="none" stroke="#666666" stroke-width="2"/>
<polygon points="800.0,360.0 810.0,365.0 810.0,355.0" fill="#666666"/>
<path d="M 1135.0,610.0 L 897.5,610.0 L 897.5,430.0 L 660.0,430.0" fill="none" stroke="#666666" stroke-width="2"/>
<polygon points="660.0,430.0 670.0,435.0 670.0,425.0" fill="#666666"/>
<path d="M 1135.0,610.0 L 1135.0,610.0 L 1135.0,220.0 L 1135.0,220.0" fill="none" stroke="#666666" stroke-width="2"/>
<polygon points="1135.0,220.0 1125.0,215.0 1125.0,225.0" fill="#666666"/>
<path d="M 1135.0,610.0 L 1135.0,610.0 L 1135.0,380.0 L 1135.0,380.0" fill="none" stroke="#666666" stroke-width="2"/>
<polygon points="1135.0,380.0 1125.0,375.0 1125.0,385.0" fill="#666666"/>
<path d="M 520.0,360.0 L 410.0,360.0 L 410.0,360.0 L 300.0,360.0" fill="none" stroke="#666666" stroke-width="2"/>
<polygon points="300.0,360.0 310.0,365.0 310.0,355.0" fill="#666666"/>
<path d="M 660.0,430.0 L 695.0,430.0 L 695.0,720.0 L 730.0,720.0" fill="none" stroke="#666666" stroke-width="2"/>
<polygon points="730.0,720.0 720.0,715.0 720.0,725.0" fill="#666666"/>
<path d="M 800.0,360.0 L 1065.0,360.0 L 1065.0,415.0 L 1330.0,415.0" fill="none" stroke="#666666" stroke-width="2"/>
<polygon points="1330.0,415.0 1320.0,410.0 1320.0,420.0" fill="#666666"/>
<path d="M 1260.0,510.0 L 1295.0,510.0 L 1295.0,415.0 L 1330.0,415.0" fill="none" stroke="#666666" stroke-width="2"/>
<polygon points="1330.0,415.0 1320.0,410.0 1320.0,420.0" fill="#666666"/>
<rect x="620" y="720" width="220" height="110" rx="16" ry="16" fill="#e0e0e0" stroke="#666666" stroke-width="1"/>
<text x="730.0" y="762.1" font-family="Arial, Helvetica, sans-serif" font-size="14" font-weight="400" text-anchor="middle" fill="#111111">ros_gz_bridge</text>
<text x="730.0" y="780.0" font-family="Arial, Helvetica, sans-serif" font-size="14" font-weight="400" text-anchor="middle" fill="#111111">Publishes: /clock, /scan, /odom_gt, /odom, /joint_states</text>
<text x="730.0" y="798.0" font-family="Arial, Helvetica, sans-serif" font-size="14" font-weight="400" text-anchor="middle" fill="#111111">Subscribes: /cmd_vel</text>
<rect x="890" y="720" width="220" height="110" rx="16" ry="16" fill="#e0e0e0" stroke="#666666" stroke-width="1"/>
<text x="1000.0" y="762.1" font-family="Arial, Helvetica, sans-serif" font-size="14" font-weight="400" text-anchor="middle" fill="#111111">robot_state_publisher</text>
<text x="1000.0" y="780.0" font-family="Arial, Helvetica, sans-serif" font-size="14" font-weight="400" text-anchor="middle" fill="#111111">Subscribes: /joint_states, /clock</text>
<text x="1000.0" y="798.0" font-family="Arial, Helvetica, sans-serif" font-size="14" font-weight="400" text-anchor="middle" fill="#111111">Publishes: /tf, /tf_static, /robot_description</text>
<rect x="360" y="740" width="180" height="70" rx="16" ry="16" fill="#e0e0e0" stroke="#666666" stroke-width="1"/>
<text x="450.0" y="771.1" font-family="Arial, Helvetica, sans-serif" font-size="14" font-weight="400" text-anchor="middle" fill="#111111">odom_gt_bridge</text>
<text x="450.0" y="789.0" font-family="Arial, Helvetica, sans-serif" font-size="14" font-weight="400" text-anchor="middle" fill="#111111">Bridge/helper for /odom_gt</text>
<rect x="60" y="110" width="220" height="100" rx="16" ry="16" fill="#dae8fc" stroke="#6c8ebf" stroke-width="1"/>
<text x="170.0" y="147.1" font-family="Arial, Helvetica, sans-serif" font-size="14" font-weight="400" text-anchor="middle" fill="#111111">identify5</text>
<text x="170.0" y="165.0" font-family="Arial, Helvetica, sans-serif" font-size="14" font-weight="400" text-anchor="middle" fill="#111111">Sub: /odom_gt, /scan, /clock</text>
<text x="170.0" y="183.0" font-family="Arial, Helvetica, sans-serif" font-size="14" font-weight="400" text-anchor="middle" fill="#111111">Pub: /detected_objects, /perception_alive</text>
<rect x="60" y="300" width="240" height="120" rx="16" ry="16" fill="#dae8fc" stroke="#6c8ebf" stroke-width="1"/>
<text x="180.0" y="338.2" font-family="Arial, Helvetica, sans-serif" font-size="14" font-weight="400" text-anchor="middle" fill="#111111">move5</text>
<text x="180.0" y="356.1" font-family="Arial, Helvetica, sans-serif" font-size="14" font-weight="400" text-anchor="middle" fill="#111111">Sub: /detected_objects, /odom_gt,</text>
<text x="180.0" y="374.0" font-family="Arial, Helvetica, sans-serif" font-size="14" font-weight="400" text-anchor="middle" fill="#111111">/navigation_paused, /supervisor_active, /clock</text>
<text x="180.0" y="391.9" font-family="Arial, Helvetica, sans-serif" font-size="14" font-weight="400" text-anchor="middle" fill="#111111">Pub: /cmd_vel_nav, /depart_request, /visited_columns</text>
<rect x="1010" y="120" width="250" height="100" rx="16" ry="16" fill="#f8cecc" stroke="#b85450" stroke-width="1"/>
<text x="1135.0" y="157.1" font-family="Arial, Helvetica, sans-serif" font-size="14" font-weight="400" text-anchor="middle" fill="#111111">soft_obstacle_avoidance_node</text>
<text x="1135.0" y="175.0" font-family="Arial, Helvetica, sans-serif" font-size="14" font-weight="400" text-anchor="middle" fill="#111111">Sub: /scan, /recharge_active, /clock</text>
<text x="1135.0" y="193.0" font-family="Arial, Helvetica, sans-serif" font-size="14" font-weight="400" text-anchor="middle" fill="#111111">Pub: /cmd_vel_soft_avoid, /navigation_paused</text>
<rect x="1010" y="270" width="250" height="110" rx="16" ry="16" fill="#f8cecc" stroke="#b85450" stroke-width="1"/>
<text x="1135.0" y="303.2" font-family="Arial, Helvetica, sans-serif" font-size="14" font-weight="400" text-anchor="middle" fill="#111111">avoid_while_interact</text>
<text x="1135.0" y="321.1" font-family="Arial, Helvetica, sans-serif" font-size="14" font-weight="400" text-anchor="middle" fill="#111111">Sub: /scan, /battery_charging,</text>
<text x="1135.0" y="339.0" font-family="Arial, Helvetica, sans-serif" font-size="14" font-weight="400" text-anchor="middle" fill="#111111">/recharge_active, /clock</text>
<text x="1135.0" y="356.9" font-family="Arial, Helvetica, sans-serif" font-size="14" font-weight="400" text-anchor="middle" fill="#111111">Pub: /cmd_vel_avoid, /avoid_active, /navigation_paused</text>
<rect x="1010" y="460" width="250" height="100" rx="16" ry="16" fill="#d5e8d4" stroke="#82b366" stroke-width="1"/>
<text x="1135.0" y="488.2" font-family="Arial, Helvetica, sans-serif" font-size="14" font-weight="400" text-anchor="middle" fill="#111111">battery_node</text>
<text x="1135.0" y="506.1" font-family="Arial, Helvetica, sans-serif" font-size="14" font-weight="400" text-anchor="middle" fill="#111111">Sub: /odom_gt</text>
<text x="1135.0" y="524.0" font-family="Arial, Helvetica, sans-serif" font-size="14" font-weight="400" text-anchor="middle" fill="#111111">Pub: /battery_status, /battery_charging,</text>
<text x="1135.0" y="541.9" font-family="Arial, Helvetica, sans-serif" font-size="14" font-weight="400" text-anchor="middle" fill="#111111">/battery_depleted</text>
<rect x="1010" y="610" width="250" height="110" rx="16" ry="16" fill="#d5e8d4" stroke="#82b366" stroke-width="1"/>
<text x="1135.0" y="643.2" font-family="Arial, Helvetica, sans-serif" font-size="14" font-weight="400" text-anchor="middle" fill="#111111">auto_recharge_node</text>
<text x="1135.0" y="661.1" font-family="Arial, Helvetica, sans-serif" font-size="14" font-weight="400" text-anchor="middle" fill="#111111">Sub: /battery_status, /odom_gt,</text>
<text x="1135.0" y="679.0" font-family="Arial, Helvetica, sans-serif" font-size="14" font-weight="400" text-anchor="middle" fill="#111111">/navigation_paused, /clock</text>
<text x="1135.0" y="696.9" font-family="Arial, Helvetica, sans-serif" font-size="14" font-weight="400" text-anchor="middle" fill="#111111">Pub: /cmd_vel_recharge, /recharge_active</text>
<rect x="520" y="290" width="280" height="140" rx="16" ry="16" fill="#f4cccc" stroke="#cc0000" stroke-width="2"/>
<text x="660.0" y="329.2" font-family="Arial, Helvetica, sans-serif" font-size="14" font-weight="400" text-anchor="middle" fill="#111111">supervisor_node</text>
<text x="660.0" y="347.1" font-family="Arial, Helvetica, sans-serif" font-size="14" font-weight="400" text-anchor="middle" fill="#111111">Arbitrates navigation, avoidance,</text>
<text x="660.0" y="365.0" font-family="Arial, Helvetica, sans-serif" font-size="14" font-weight="400" text-anchor="middle" fill="#111111">and recharge commands</text>
<text x="660.0" y="383.0" font-family="Arial, Helvetica, sans-serif" font-size="14" font-weight="400" text-anchor="middle" fill="#111111">Pub: /cmd_vel, /decision_metrics,</text>
<text x="660.0" y="400.9" font-family="Arial, Helvetica, sans-serif" font-size="14" font-weight="400" text-anchor="middle" fill="#111111">/supervisor_active, /supervisor_events</text>
<rect x="1330" y="360" width="240" height="110" rx="16" ry="16" fill="#e0e0e0" stroke="#666666" stroke-width="1"/>
<text x="1450.0" y="393.2" font-family="Arial, Helvetica, sans-serif" font-size="14" font-weight="400" text-anchor="middle" fill="#111111">data_logger</text>
<text x="1450.0" y="411.1" font-family="Arial, Helvetica, sans-serif" font-size="14" font-weight="400" text-anchor="middle" fill="#111111">Sub: /battery_status, /battery_charging,</text>
<text x="1450.0" y="429.0" font-family="Arial, Helvetica, sans-serif" font-size="14" font-weight="400" text-anchor="middle" fill="#111111">/decision_metrics, /supervisor_events,</text>
<text x="1450.0" y="446.9" font-family="Arial, Helvetica, sans-serif" font-size="14" font-weight="400" text-anchor="middle" fill="#111111">/odom_gt, /clock</text>
<rect x="350" y="20" width="650" height="55" rx="0" ry="0" fill="none" stroke="none" stroke-width="1"/>
<text x="675.0" y="43.6" font-family="Arial, Helvetica, sans-serif" font-size="14" font-weight="400" text-anchor="middle" fill="#111111">ROS2 Architecture for Autonomous Navigation,</text>
<text x="675.0" y="61.5" font-family="Arial, Helvetica, sans-serif" font-size="14" font-weight="400" text-anchor="middle" fill="#111111">Obstacle Avoidance, Recharge, and Supervisory Control</text>
</svg>